<?xml version="1.0" encoding="UTF-8"?>
<svg id="Layer_1" xmlns="http://www.w3.org/2000/svg" version="1.1" viewBox="0 0 868 265.3">
  <defs>
    <style>.st0 { fill: #fff; }</style>
  </defs>
  <polygon class="st0" points="129.9 86.5 85.4 86.5 85.4 131 128.9 174.6 173.4 174.6 173.4 130.1 129.9 86.5"/>
  <polygon class="st0" points="209.6 93.9 173.4 93.9 173.4 130.1 208.8 165.7 245 165.7 245 129.5 209.6 93.9"/>
  <rect class="st0" x="245" y="97.9" width="31.5" height="31.5"/>
  <g>
    <path class="st0" d="M419.3,98.2h-9c-1.2,0-1.7.8-2,1.4l-17.5,30.9h-.1l-19.4-30.9c-.4-.7-.9-1.4-1.9-1.4h-8.5c-1,0-1.5.6-1.9,1.4l-19.4,30.9h-.1l-17.5-30.9c-.4-.7-.9-1.5-2-1.5h-9c-.5,0-.9.2-1.1.6-.1.2-.3.8.1,1.6l23.6,41.2h0c.4.6.9,1.3,1.9,1.3h8c1,0,1.5-.6,1.9-1.3l19.9-32,19.9,31.9c.4.7.9,1.3,1.9,1.3h8c1,0,1.6-.6,2-1.3l23.6-41.2c.4-.8.2-1.3,0-1.6-.2-.4-.7-.6-1.2-.6Z"/>
    <path class="st0" d="M441.5,98.2h-7.8c-1,0-1.6.6-1.6,1.6v41.5c0,1,.6,1.6,1.6,1.6h7.8c.9,0,1.5-.6,1.5-1.6v-41.5c0-1-.6-1.6-1.5-1.6Z"/>
    <path class="st0" d="M507.1,133.2h-40.1v-33.4c0-1-.6-1.6-1.5-1.6h-7.8c-1,0-1.6.6-1.6,1.6v41.5c0,1,.6,1.6,1.6,1.6h49.4c1,0,1.6-.6,1.6-1.6v-6.5c0-1-.6-1.6-1.6-1.6Z"/>
    <path class="st0" d="M565.8,97.9h-33c-7.8,0-12.2,4.3-12.2,12v21.3c0,7.7,4.3,12,12.2,12h33c7.8,0,12.2-4.3,12.2-12v-21.3c0-7.7-4.3-12-12.2-12ZM567,110.6v19.9c0,2.1-1,2.9-3.5,2.9h-28.5c-2.5,0-3.5-.9-3.5-2.9v-19.9c0-2.1,1-2.9,3.5-2.9h28.5c2.5,0,3.5.9,3.5,2.9Z"/>
    <path class="st0" d="M642.3,98.2h-53.1c-1,0-1.6.6-1.6,1.6v6.5c0,1,.6,1.6,1.6,1.6h21.2v33.4c0,1,.6,1.6,1.6,1.6h7.6c.9,0,1.5-.6,1.5-1.6v-33.4h21.2c1,0,1.6-.6,1.6-1.6v-6.5c0-1-.6-1.6-1.6-1.6Z"/>
    <path class="st0" d="M711.5,98.2h-7.8c-.9,0-1.5.6-1.5,1.6v30.5c0,2.2-.8,2.9-3,2.9h-29.5c-2.2,0-3-.8-3-2.9v-30.5c0-1-.6-1.6-1.5-1.6h-7.8c-1,0-1.6.6-1.6,1.6v31.2c0,7.8,4,12,11.7,12h34c7.6,0,11.7-4.1,11.7-12v-31.2c0-1-.6-1.6-1.6-1.6Z"/>
    <path class="st0" d="M768.7,116.8l-27.9-1.5c-3.8-.1-4.1-2.1-4.1-4.2s1.2-3.4,3.9-3.4h26.9c1.1,0,2.9.3,3.4,2.2.3,1.3,1,1.9,2.3,1.9h6.2c1.4,0,2.2-.7,2.2-2,0-7.9-4.3-11.8-13-11.8h-28.4c-9.7,0-14.2,4.1-14.2,12.8s4.7,13.1,13.9,13.5l27.9,1.5c3.8.1,4.1,2.1,4.1,4.2s-1.2,3.4-3.9,3.4h-27.9c-1.1,0-2.9-.3-3.4-2.2-.3-1.3-1-1.9-2.3-1.9h-6.2c-1.4,0-2.2.7-2.2,2,0,7.9,4.3,11.8,13,11.8h29.4c9.8,0,14.2-4,14.2-12.9s-4.7-13-13.9-13.5Z"/>
  </g>
</svg>
